<svg width="41" height="40" viewBox="0 0 41 40" fill="none" xmlns="http://www.w3.org/2000/svg">
<g id="Frame">
<path id="Vector" d="M21.3451 11.25V17.9766L27.0357 15.1313C27.3322 14.9829 27.6755 14.9584 27.9901 15.0632C28.3046 15.1679 28.5647 15.3933 28.7131 15.6899C28.8614 15.9864 28.8859 16.3296 28.7812 16.6442C28.6764 16.9588 28.451 17.2188 28.1545 17.3672L20.6545 21.1172C20.4639 21.2125 20.2522 21.2576 20.0394 21.2481C19.8265 21.2386 19.6197 21.1749 19.4384 21.0629C19.2571 20.951 19.1075 20.7946 19.0036 20.6086C18.8998 20.4225 18.8452 20.2131 18.8451 20V11.25C18.8451 10.9185 18.9768 10.6005 19.2112 10.3661C19.4456 10.1317 19.7636 10 20.0951 10C20.4266 10 20.7446 10.1317 20.979 10.3661C21.2134 10.6005 21.3451 10.9185 21.3451 11.25ZM20.0951 33.75C17.3756 33.75 14.7172 32.9436 12.456 31.4327C10.1948 29.9218 8.43246 27.7744 7.39176 25.2619C6.35105 22.7494 6.07876 19.9848 6.6093 17.3175C7.13985 14.6503 8.44941 12.2003 10.3724 10.2773C12.2954 8.35432 14.7454 7.04476 17.4126 6.51421C20.0798 5.98366 22.8445 6.25596 25.357 7.29666C27.8695 8.33737 30.0169 10.0997 31.5278 12.3609C33.0387 14.6221 33.8451 17.2805 33.8451 20C33.8451 20.3315 33.9768 20.6495 34.2112 20.8839C34.4456 21.1183 34.7636 21.25 35.0951 21.25C35.4266 21.25 35.7446 21.1183 35.979 20.8839C36.2134 20.6495 36.3451 20.3315 36.3451 20C36.3451 16.7861 35.3921 13.6443 33.6065 10.972C31.8209 8.29969 29.283 6.21689 26.3137 4.98696C23.3444 3.75704 20.0771 3.43524 16.9249 4.06225C13.7727 4.68926 10.8772 6.23692 8.60461 8.50952C6.33201 10.7821 4.78435 13.6776 4.15734 16.8298C3.53033 19.982 3.85213 23.2493 5.08206 26.2186C6.31198 29.1879 8.39478 31.7258 11.0671 33.5114C13.7394 35.297 16.8812 36.25 20.0951 36.25C20.4266 36.25 20.7446 36.1183 20.979 35.8839C21.2134 35.6495 21.3451 35.3315 21.3451 35C21.3451 34.6685 21.2134 34.3505 20.979 34.1161C20.7446 33.8817 20.4266 33.75 20.0951 33.75ZM36.3029 34.6781C36.3487 34.8379 36.3622 35.0052 36.3426 35.1702C36.323 35.3352 36.2706 35.4947 36.1887 35.6393C36.1067 35.7838 35.9967 35.9106 35.8651 36.0121C35.7336 36.1137 35.5831 36.188 35.4225 36.2307C35.2619 36.2734 35.0944 36.2836 34.9297 36.2608C34.7651 36.238 34.6067 36.1826 34.4637 36.0978C34.3208 36.0131 34.1962 35.9006 34.0972 35.7671C33.9982 35.6336 33.9269 35.4817 33.8873 35.3203C33.4451 33.6594 31.8857 32.5 30.0951 32.5C28.3045 32.5 26.7451 33.6594 26.3029 35.3203C26.2323 35.5868 26.0755 35.8224 25.8571 35.9905C25.6387 36.1587 25.3708 36.2499 25.0951 36.25C24.9864 36.2497 24.8783 36.2356 24.7732 36.2078C24.4529 36.1224 24.1796 35.9133 24.0135 35.6265C23.8473 35.3396 23.8019 34.9985 23.8873 34.6781C24.2927 33.1726 25.2463 31.873 26.5607 31.0344C25.8609 30.3353 25.3842 29.4444 25.1908 28.4744C24.9974 27.5043 25.0961 26.4987 25.4744 25.5848C25.8527 24.6708 26.4935 23.8896 27.3159 23.3399C28.1383 22.7903 29.1052 22.4969 30.0943 22.4969C31.0835 22.4969 32.0504 22.7903 32.8727 23.3399C33.6951 23.8896 34.336 24.6708 34.7142 25.5848C35.0925 26.4987 35.1912 27.5043 34.9978 28.4744C34.8045 29.4444 34.3277 30.3353 33.6279 31.0344C34.9429 31.8727 35.8971 33.1723 36.3029 34.6781ZM27.5951 27.5C27.5951 27.9945 27.7417 28.4778 28.0164 28.8889C28.2911 29.3001 28.6816 29.6205 29.1384 29.8097C29.5952 29.9989 30.0979 30.0484 30.5828 29.952C31.0678 29.8555 31.5132 29.6174 31.8629 29.2678C32.2125 28.9181 32.4506 28.4727 32.5471 27.9877C32.6435 27.5028 32.594 27.0001 32.4048 26.5433C32.2156 26.0865 31.8951 25.696 31.484 25.4213C31.0729 25.1466 30.5896 25 30.0951 25C29.4321 25 28.7962 25.2634 28.3273 25.7322C27.8585 26.2011 27.5951 26.837 27.5951 27.5Z" fill="#888888"/>
</g>
</svg>
