<svg width="24" height="24" viewBox="0 0 24 24" fill="none" xmlns="http://www.w3.org/2000/svg">
<path d="M21.001 12C21.001 12.1989 20.922 12.3897 20.7814 12.5303C20.6407 12.671 20.4499 12.75 20.251 12.75H3.75104C3.55213 12.75 3.36136 12.671 3.22071 12.5303C3.08006 12.3897 3.00104 12.1989 3.00104 12C3.00104 11.8011 3.08006 11.6103 3.22071 11.4697C3.36136 11.329 3.55213 11.25 3.75104 11.25H20.251C20.4499 11.25 20.6407 11.329 20.7814 11.4697C20.922 11.6103 21.001 11.8011 21.001 12ZM3.75104 6.75H20.251C20.4499 6.75 20.6407 6.67098 20.7814 6.53033C20.922 6.38968 21.001 6.19891 21.001 6C21.001 5.80109 20.922 5.61032 20.7814 5.46967C20.6407 5.32902 20.4499 5.25 20.251 5.25H3.75104C3.55213 5.25 3.36136 5.32902 3.22071 5.46967C3.08006 5.61032 3.00104 5.80109 3.00104 6C3.00104 6.19891 3.08006 6.38968 3.22071 6.53033C3.36136 6.67098 3.55213 6.75 3.75104 6.75ZM20.251 17.25H3.75104C3.55213 17.25 3.36136 17.329 3.22071 17.4697C3.08006 17.6103 3.00104 17.8011 3.00104 18C3.00104 18.1989 3.08006 18.3897 3.22071 18.5303C3.36136 18.671 3.55213 18.75 3.75104 18.75H20.251C20.4499 18.75 20.6407 18.671 20.7814 18.5303C20.922 18.3897 21.001 18.1989 21.001 18C21.001 17.8011 20.922 17.6103 20.7814 17.4697C20.6407 17.329 20.4499 17.25 20.251 17.25Z" fill="#191919"/>
</svg>
