<svg width="16" height="16" viewBox="0 0 16 16" fill="none" xmlns="http://www.w3.org/2000/svg">
<path d="M2.64625 9.64622L7.64625 4.64622C7.69268 4.59973 7.74783 4.56285 7.80853 4.53769C7.86923 4.51252 7.93429 4.49957 8 4.49957C8.0657 4.49957 8.13077 4.51252 8.19147 4.53769C8.25217 4.56285 8.30731 4.59973 8.35375 4.64622L13.3537 9.64622C13.4476 9.74004 13.5003 9.86728 13.5003 9.99997C13.5003 10.1326 13.4476 10.2599 13.3537 10.3537C13.2599 10.4475 13.1327 10.5002 13 10.5002C12.8673 10.5002 12.7401 10.4475 12.6462 10.3537L8 5.70684L3.35375 10.3537C3.30729 10.4002 3.25214 10.437 3.19144 10.4622C3.13075 10.4873 3.06569 10.5002 3 10.5002C2.9343 10.5002 2.86924 10.4873 2.80855 10.4622C2.74785 10.437 2.6927 10.4002 2.64625 10.3537C2.59979 10.3073 2.56294 10.2521 2.5378 10.1914C2.51266 10.1307 2.49972 10.0657 2.49972 9.99997C2.49972 9.93427 2.51266 9.86921 2.5378 9.80852C2.56294 9.74782 2.59979 9.69267 2.64625 9.64622Z" fill="black"/>
</svg>
