<svg width="33" height="24" viewBox="0 0 33 24" fill="none" xmlns="http://www.w3.org/2000/svg">
<g id="Frame 7">
<g id="Group">
<path id="Subtract" fill-rule="evenodd" clip-rule="evenodd" d="M28.9915 1.6571C30.3445 2.01929 31.4078 3.08255 31.77 4.43556C32.4245 6.88546 32.4271 12 32.4271 12C32.4271 12 32.4271 17.1146 31.77 19.5645C31.4078 20.9175 30.3445 21.9807 28.9915 22.3429C26.5417 23 16.7135 23 16.7135 23C16.7135 23 6.88546 23 4.43555 22.3429C3.08255 21.9807 2.01929 20.9175 1.6571 19.5645C1 17.1146 1 12 1 12C1 12 1 6.88546 1.6571 4.43556C2.01929 3.08255 3.08255 2.01929 4.43555 1.6571C6.88546 1 16.7135 1 16.7135 1C16.7135 1 26.5417 1 28.9915 1.6571ZM21.7324 12.0007L13.5677 16.7142V7.28711L21.7324 12.0007Z" fill="#9C9C9C"/>
</g>
</g>
</svg>
